name ./resultDataOpenSim/trcMotMarkerGrf/sub09/grf-01-04.mot
datacolumns 19
datarows 22
range 0.93600000 1.02000000
endheader

                time	     ground_force_vx	     ground_force_vy	     ground_force_vz	     ground_force_px	     ground_force_py	     ground_force_pz	   l_ground_force_vx	   l_ground_force_vy	   l_ground_force_vz	   l_ground_force_px	   l_ground_force_py	   l_ground_force_pz	     ground_torque_x	     ground_torque_y	     ground_torque_z	   l_ground_torque_x	   l_ground_torque_y	   l_ground_torque_z	
          0.93600000	          0.00000000	          0.00000000	          0.00000000	          0.00000000	          0.00000000	          0.00000000	          0.30796379	        351.81121437	         12.86394013	          0.12683559	          0.00000000	          0.03636462	          0.00000000	          0.00000000	          0.00000000	          0.00000000	         -0.92214277	          0.00000000	
          0.94000000	          0.00000000	          0.00000000	          0.00000000	          0.00000000	          0.00000000	          0.00000000	          0.92515839	        358.69717252	         13.50232322	          0.12901277	          0.00000000	          0.03627600	          0.00000000	          0.00000000	          0.00000000	          0.00000000	         -1.04891721	          0.00000000	
          0.94400000	          0.00000000	          0.00000000	          0.00000000	          0.00000000	          0.00000000	          0.00000000	          1.54078144	        365.98580365	         13.93051005	          0.13110830	          0.00000000	          0.03620121	          0.00000000	          0.00000000	          0.00000000	          0.00000000	         -1.20935319	          0.00000000	
          0.94800000	          0.00000000	          0.00000000	          0.00000000	          0.00000000	          0.00000000	          0.00000000	          2.17609313	        373.74263648	         14.12280443	          0.13311230	          0.00000000	          0.03613434	          0.00000000	          0.00000000	          0.00000000	          0.00000000	         -1.40401092	          0.00000000	
          0.95200000	          0.00000000	          0.00000000	          0.00000000	          0.00000000	          0.00000000	          0.00000000	          2.89284255	        382.05436216	         14.09252502	          0.13502324	          0.00000000	          0.03607922	          0.00000000	          0.00000000	          0.00000000	          0.00000000	         -1.63200562	          0.00000000	
          0.95600000	          0.00000000	          0.00000000	          0.00000000	          0.00000000	          0.00000000	          0.00000000	          3.77525955	        390.97712125	         13.87129598	          0.13683526	          0.00000000	          0.03602587	          0.00000000	          0.00000000	          0.00000000	          0.00000000	         -1.89120511	          0.00000000	
          0.96000000	          0.00000000	          0.00000000	          0.00000000	          0.00000000	          0.00000000	          0.00000000	          4.90558985	        400.52639225	         13.50054617	          0.13853507	          0.00000000	          0.03595550	          0.00000000	          0.00000000	          0.00000000	          0.00000000	         -2.17857308	          0.00000000	
          0.96400000	          0.00000000	          0.00000000	          0.00000000	          0.00000000	          0.00000000	          0.00000000	          6.34452779	        410.70568941	         13.02421748	          0.14011356	          0.00000000	          0.03584371	          0.00000000	          0.00000000	          0.00000000	          0.00000000	         -2.49041914	          0.00000000	
          0.96800000	          0.00000000	          0.00000000	          0.00000000	          0.00000000	          0.00000000	          0.00000000	          8.12066890	        421.51824978	         12.47528345	          0.14159017	          0.00000000	          0.03567495	          0.00000000	          0.00000000	          0.00000000	          0.00000000	         -2.82235620	          0.00000000	
          0.97200000	          0.00000000	          0.00000000	          0.00000000	          0.00000000	          0.00000000	          0.00000000	         10.22256623	        432.93212771	         11.87045920	          0.14303192	          0.00000000	          0.03547430	          0.00000000	          0.00000000	          0.00000000	          0.00000000	         -3.16886867	          0.00000000	
          0.97600000	          0.00000000	          0.00000000	          0.00000000	          0.00000000	          0.00000000	          0.00000000	         12.59943994	        444.83369209	         11.23083854	          0.14452299	          0.00000000	          0.03529276	          0.00000000	          0.00000000	          0.00000000	          0.00000000	         -3.52258117	          0.00000000	
          0.98000000	          0.00000000	          0.00000000	          0.00000000	          0.00000000	          0.00000000	          0.00000000	         15.19137452	        457.03174732	         10.61211091	          0.14613694	          0.00000000	          0.03516518	          0.00000000	          0.00000000	          0.00000000	          0.00000000	         -3.87353840	          0.00000000	
          0.98400000	          0.00000000	          0.00000000	          0.00000000	          0.00000000	          0.00000000	          0.00000000	         17.98007335	        469.31229992	         10.11140007	          0.14792109	          0.00000000	          0.03509675	          0.00000000	          0.00000000	          0.00000000	          0.00000000	         -4.20895137	          0.00000000	
          0.98800000	          0.00000000	          0.00000000	          0.00000000	          0.00000000	          0.00000000	          0.00000000	         21.00828217	        481.49819410	          9.85492295	          0.14983903	          0.00000000	          0.03506820	          0.00000000	          0.00000000	          0.00000000	          0.00000000	         -4.51387619	          0.00000000	
          0.99200000	          0.00000000	          0.00000000	          0.00000000	          0.00000000	          0.00000000	          0.00000000	         24.34611895	        493.49748525	          9.98852904	          0.15179724	          0.00000000	          0.03503802	          0.00000000	          0.00000000	          0.00000000	          0.00000000	         -4.77311985	          0.00000000	
          0.99600000	          0.00000000	          0.00000000	          0.00000000	          0.00000000	          0.00000000	          0.00000000	         28.04979171	        505.33851252	         10.66008380	          0.15367981	          0.00000000	          0.03495330	          0.00000000	          0.00000000	          0.00000000	          0.00000000	         -4.97427403	          0.00000000	
          1.00000000	          0.00000000	          0.00000000	          0.00000000	          0.00000000	          0.00000000	          0.00000000	         32.14924423	        517.19024490	         11.97764849	          0.15537363	          0.00000000	          0.03478758	          0.00000000	          0.00000000	          0.00000000	          0.00000000	         -5.11126986	          0.00000000	
          1.00400000	          0.00000000	          0.00000000	          0.00000000	          0.00000000	          0.00000000	          0.00000000	         36.64301697	        529.33453474	         13.95286362	          0.15680360	          0.00000000	          0.03455053	          0.00000000	          0.00000000	          0.00000000	          0.00000000	         -5.18742162	          0.00000000	
          1.00800000	          0.00000000	          0.00000000	          0.00000000	          0.00000000	          0.00000000	          0.00000000	         41.48201925	        542.05290287	         16.44555792	          0.15796032	          0.00000000	          0.03426537	          0.00000000	          0.00000000	          0.00000000	          0.00000000	         -5.21676458	          0.00000000	
          1.01200000	          0.00000000	          0.00000000	          0.00000000	          0.00000000	          0.00000000	          0.00000000	         46.57085209	        555.49957670	         19.13754574	          0.15883296	          0.00000000	          0.03396244	          0.00000000	          0.00000000	          0.00000000	          0.00000000	         -5.22276118	          0.00000000	
          1.01600000	          0.00000000	          0.00000000	          0.00000000	          0.00000000	          0.00000000	          0.00000000	         51.80729689	        569.65144078	         21.58126866	          0.15948294	          0.00000000	          0.03368572	          0.00000000	          0.00000000	          0.00000000	          0.00000000	         -5.23413749	          0.00000000	
          1.02000000	          0.00000000	          0.00000000	          0.00000000	          0.00000000	          0.00000000	          0.00000000	         57.13820673	        584.34776931	         23.34214990	          0.16004331	          0.00000000	          0.03347515	          0.00000000	          0.00000000	          0.00000000	          0.00000000	         -5.27854876	          0.00000000	
